# xmcd
#
# Track frame offsets:
#	150
#	59008
#	102478
#	136776
#	174429
#
# Disc length: 2666 seconds
#
# Revision: 3
# Processed by: cddbd v1.5.2PL0 Copyright (c) Steve Scherf et al.
# Submitted via: audiograbber 1.83.01
#
DISCID=410a6805
DTITLE=Herbie Hancock - The Very Best of Herbie Hancock - The Remastered Herbie
DTITLE=Hancock Collection
DYEAR=2006
DGENRE=Jazz
TTITLE0=Herbie Hancock - Baraka
TTITLE1=Herbie Hancock - Maulana
TTITLE2=Herbie Hancock - Kawaida
TTITLE3=Herbie Hancock - Dunia
TTITLE4=Herbie Hancock - Kamili
EXTD=YEAR: 2006
EXTT0=
EXTT1=
EXTT2=
EXTT3=
EXTT4=
PLAYORDER=
